<svg xmlns="http://www.w3.org/2000/svg" viewBox="0 0 141.42 196.75"><defs><style>.cls-1{fill:#e6223f;}.cls-2{fill:#253786;}.cls-3{fill:#fff;}.cls-4{fill:#f8f8f7;}.cls-5{fill:#84cee3;}.cls-6{fill:none;stroke:#fff;stroke-miterlimit:10;stroke-width:0.75px;}</style></defs><g id="Capa_2" data-name="Capa 2"><g id="Capa_1-2" data-name="Capa 1"><path class="cls-1" d="M70.71,0A70.79,70.79,0,0,0,0,70.71c0,38,65.51,121.36,68.3,124.89a3.1,3.1,0,0,0,4.82,0c2.79-3.53,68.3-86.9,68.3-124.89A70.79,70.79,0,0,0,70.71,0Z"/><path class="cls-2" d="M70.71,0c-1.55,0-3.08.06-4.61.15a70.81,70.81,0,0,1,66.1,70.56c0,34.56-54.21,106.66-66.1,122.06,1.18,1.53,2,2.51,2.2,2.83a3.1,3.1,0,0,0,4.82,0c2.79-3.53,68.3-86.9,68.3-124.89A70.79,70.79,0,0,0,70.71,0Z"/><path class="cls-3" d="M70.71,15.37a55.34,55.34,0,1,0,55.34,55.34A55.41,55.41,0,0,0,70.71,15.37Z"/><path class="cls-4" d="M70.71,21.52A49.19,49.19,0,1,0,119.9,70.71,49.25,49.25,0,0,0,70.71,21.52Z"/><path class="cls-5" d="M94.89,71.68A23.22,23.22,0,1,0,67.25,94.47v2.64H66.14A1.1,1.1,0,0,0,65,98.22v17.69a1.1,1.1,0,0,0,1.1,1.1H77.2a1.1,1.1,0,0,0,1.1-1.1V98.22a1.1,1.1,0,0,0-1.1-1.11H76.09V94.47A23.25,23.25,0,0,0,94.89,71.68ZM76.09,114.8H67.25V99.32h8.84ZM69.46,97.11V94.9h4.42v2.21Zm2.21-4.42a21,21,0,1,1,21-21A21,21,0,0,1,71.67,92.69Z"/><path class="cls-5" d="M71.67,49.24C59.73,49.24,50,60,50,73.29c0,12.15,8.1,19.4,21.66,19.4s21.66-7.25,21.66-19.4C93.33,60,83.61,49.24,71.67,49.24Z"/><path class="cls-5" d="M59.79,46.91c5,0,9.09-4.52,9.09-10.08,0-5.06-3.54-12.42-9.09-12.42s-9.08,7.36-9.08,12.42C50.71,42.39,54.78,46.91,59.79,46.91Z"/><path class="cls-5" d="M83.55,46.91c5,0,9.08-4.52,9.08-10.08,0-5.06-3.54-12.42-9.08-12.42s-9.08,7.36-9.08,12.42C74.47,42.39,78.54,46.91,83.55,46.91Z"/><path class="cls-5" d="M102.28,41.48c-5.55,0-9.09,7.35-9.09,12.42,0,5.56,4.08,10.08,9.09,10.08s9.08-4.52,9.08-10.08C111.36,48.83,107.82,41.48,102.28,41.48Z"/><path class="cls-5" d="M50.15,53.89c0-5.06-3.54-12.41-9.08-12.41S32,48.83,32,53.89C32,59.46,36.06,64,41.07,64S50.15,59.46,50.15,53.89Z"/><path class="cls-6" d="M69.13,69.06h5.08a1.28,1.28,0,1,0,0-2.55H69.13a1.28,1.28,0,0,0,0,2.55Z"/><path class="cls-6" d="M69.13,72.87h5.08a1.27,1.27,0,1,0,0-2.54H69.13a1.27,1.27,0,1,0,0,2.54Z"/><path class="cls-6" d="M85.66,80.5V71.6a1.27,1.27,0,0,0-1.27-1.27H79.3V64A1.27,1.27,0,0,0,78,62.7H76.76V60.15a1.27,1.27,0,0,0-1.27-1.27H67.86a1.27,1.27,0,0,0-1.28,1.27V62.7H65.31A1.27,1.27,0,0,0,64,64v6.36H59a1.27,1.27,0,0,0-1.27,1.27v8.9a1.28,1.28,0,0,0,0,2.55h28a1.28,1.28,0,0,0,0-2.55ZM64,80.5H60.22V76.69H61.5a1.28,1.28,0,0,0,0-2.55H60.22V72.87H64Zm5.09-19.08h5.08V62.7H69.13ZM72.94,80.5H70.4V76.69h2.54Zm3.82,0H75.49V75.42a1.28,1.28,0,0,0-1.28-1.28H69.13a1.27,1.27,0,0,0-1.27,1.28V80.5H66.58V65.24H76.76Zm6.36-6.36H81.85a1.28,1.28,0,1,0,0,2.55h1.27V80.5H79.3V72.87h3.82Z"/></g></g></svg>