<svg xmlns="http://www.w3.org/2000/svg" xmlns:xlink="http://www.w3.org/1999/xlink" viewBox="0 0 438.72 196.75"><defs><style>.cls-1{fill:#e6223f;}.cls-2{fill:#253786;}.cls-3{fill:#fff;}.cls-4{fill:#f8f8f7;}.cls-5{fill:#1d1d1b;}.cls-6{fill:#e6203e;}.cls-7{stroke:#27348b;stroke-width:0.5px;fill:url(#Degradado_sin_nombre_8);}.cls-7,.cls-9{stroke-miterlimit:10;}.cls-8{fill:#84cee3;}.cls-9{fill:none;stroke:#fff;stroke-width:0.75px;}</style><linearGradient id="Degradado_sin_nombre_8" x1="423.96" y1="125.52" x2="423.96" y2="170.33" gradientUnits="userSpaceOnUse"><stop offset="0" stop-color="#fff"/><stop offset="1" stop-color="#27348b"/></linearGradient></defs><g id="Capa_2" data-name="Capa 2"><g id="Capa_1-2" data-name="Capa 1"><path class="cls-1" d="M70.71,0A70.79,70.79,0,0,0,0,70.71c0,38,65.51,121.36,68.3,124.89a3.1,3.1,0,0,0,4.82,0c2.79-3.53,68.3-86.9,68.3-124.89A70.79,70.79,0,0,0,70.71,0Z"/><path class="cls-2" d="M70.71,0c-1.55,0-3.08.06-4.61.15a70.81,70.81,0,0,1,66.1,70.56c0,34.56-54.21,106.66-66.1,122.06,1.18,1.53,2,2.51,2.2,2.83a3.1,3.1,0,0,0,4.82,0c2.79-3.53,68.3-86.9,68.3-124.89A70.79,70.79,0,0,0,70.71,0Z"/><path class="cls-3" d="M70.71,15.37a55.34,55.34,0,1,0,55.34,55.34A55.41,55.41,0,0,0,70.71,15.37Z"/><path class="cls-4" d="M70.71,21.52A49.19,49.19,0,1,0,119.9,70.71,49.25,49.25,0,0,0,70.71,21.52Z"/><path class="cls-5" d="M174.21,157.93h-8.66v-31a4.15,4.15,0,0,0-.34-1.69,4.62,4.62,0,0,0-.94-1.38,4.33,4.33,0,0,0-1.38-.92,4.15,4.15,0,0,0-1.69-.34,4.2,4.2,0,0,0-1.7.34,4.45,4.45,0,0,0-1.38.92,4.23,4.23,0,0,0-.92,1.38,4.32,4.32,0,0,0-.33,1.69v31h-8.69v-31a4.32,4.32,0,0,0-.33-1.69,4.23,4.23,0,0,0-2.3-2.3,4.15,4.15,0,0,0-1.69-.34,4.2,4.2,0,0,0-1.7.34,4.29,4.29,0,0,0-1.37.92,4.1,4.1,0,0,0-.93,1.38,4.32,4.32,0,0,0-.33,1.69v31h-8.68v-31a12.72,12.72,0,0,1,1-5.07,13,13,0,0,1,16.66-7.08,12.74,12.74,0,0,1,4,2.5,13,13,0,0,1,13.72-2.35,13,13,0,0,1,6.94,6.93,12.89,12.89,0,0,1,1,5.07Z"/><path class="cls-5" d="M201.17,157.93h-8.65V144.34a16.72,16.72,0,0,1-5.28-2.33,17.35,17.35,0,0,1-4.13-3.83,17.28,17.28,0,0,1-3.64-10.63v-13h8.69v13a8.53,8.53,0,0,0,.68,3.37,8.65,8.65,0,0,0,4.63,4.63,8.72,8.72,0,0,0,6.75,0,8.65,8.65,0,0,0,2.77-1.86,9,9,0,0,0,1.86-2.77,8.53,8.53,0,0,0,.68-3.37v-13h8.65v13a17,17,0,0,1-1,5.7,17.44,17.44,0,0,1-2.68,4.93,17.65,17.65,0,0,1-4.11,3.83,16.67,16.67,0,0,1-5.27,2.33Z"/><path class="cls-5" d="M262.84,157.93h-8.65v-31a4.16,4.16,0,0,0-.35-1.69,4.44,4.44,0,0,0-.94-1.38,4.23,4.23,0,0,0-1.38-.92,4.37,4.37,0,0,0-3.38,0,4.23,4.23,0,0,0-1.38.92,4.07,4.07,0,0,0-.92,1.38,4.15,4.15,0,0,0-.34,1.69v31h-8.68v-31a4.15,4.15,0,0,0-.34-1.69,4.07,4.07,0,0,0-.92-1.38,4.23,4.23,0,0,0-1.38-.92,4.37,4.37,0,0,0-3.38,0,4.23,4.23,0,0,0-2.3,2.3,4.15,4.15,0,0,0-.34,1.69v31h-8.68v-31a12.89,12.89,0,0,1,1-5.07,13.05,13.05,0,0,1,6.93-6.93,12.92,12.92,0,0,1,13.76,2.35,12.76,12.76,0,0,1,4-2.5,13.12,13.12,0,0,1,9.72.15,13.05,13.05,0,0,1,6.93,6.93,12.89,12.89,0,0,1,1,5.07Z"/><path class="cls-5" d="M305.3,144.91a12.65,12.65,0,0,1-1,5.06,13.24,13.24,0,0,1-6.93,6.93,12.63,12.63,0,0,1-5,1h-21.7v-43.4h21.7a12.63,12.63,0,0,1,5,1,13.24,13.24,0,0,1,6.93,6.93,12.65,12.65,0,0,1,1,5.06A9.48,9.48,0,0,1,305,130a12.34,12.34,0,0,1-.93,2.45,11,11,0,0,1-1.46,2.15,8.28,8.28,0,0,1-1.87,1.6,6.65,6.65,0,0,1,1.9,1.56,11.07,11.07,0,0,1,1.46,2.16,11.47,11.47,0,0,1,.92,2.47A10.5,10.5,0,0,1,305.3,144.91Zm-26-13h13a4.35,4.35,0,0,0,1.69-.33,4.45,4.45,0,0,0,1.38-.92,4.38,4.38,0,0,0,.92-1.39,4.49,4.49,0,0,0,.33-1.71,4.37,4.37,0,0,0-.33-1.7,4.23,4.23,0,0,0-2.3-2.3,4.35,4.35,0,0,0-1.69-.33h-13Zm0,17.34h13a4.35,4.35,0,0,0,1.69-.33,4.23,4.23,0,0,0,2.3-2.3,4.52,4.52,0,0,0,0-3.39,4.23,4.23,0,0,0-2.3-2.3,4.35,4.35,0,0,0-1.69-.33h-13Z"/><path class="cls-5" d="M346.09,157.93H337.4v-8.69H320v8.69h-8.65v-26a16.87,16.87,0,0,1,1.36-6.76,17.53,17.53,0,0,1,3.71-5.52,17.14,17.14,0,0,1,5.5-3.72,17.39,17.39,0,0,1,13.53,0,17.22,17.22,0,0,1,5.52,3.72,17.41,17.41,0,0,1,3.73,5.52,17,17,0,0,1,1.36,6.76Zm-8.69-17.34V131.9a8.35,8.35,0,0,0-.68-3.37,8.65,8.65,0,0,0-4.63-4.63,8.67,8.67,0,0,0-9.51,1.86,8.85,8.85,0,0,0-1.87,2.77,8.53,8.53,0,0,0-.68,3.37v8.69Z"/><path class="cls-6" d="M379.65,157.93H371v-43.4h17.37a17.08,17.08,0,0,1,4.6.62,17.42,17.42,0,0,1,4.13,1.76,17.74,17.74,0,0,1,3.51,2.72,17.28,17.28,0,0,1,5.1,12.27,16.84,16.84,0,0,1-1.36,6.74,17.38,17.38,0,0,1-9.25,9.24,16.76,16.76,0,0,1-6.73,1.36h-8.68Zm0-34.71v17.37h8.68a8.44,8.44,0,0,0,3.36-.68,8.77,8.77,0,0,0,4.62-4.63,8.72,8.72,0,0,0,0-6.75,8.85,8.85,0,0,0-1.87-2.77,8.57,8.57,0,0,0-2.75-1.86,8.44,8.44,0,0,0-3.36-.68Z"/><path class="cls-7" d="M417.68,170.27V162l4.6.06a7,7,0,0,0,2.33-.39,8.1,8.1,0,0,0,2.08-1.09,8.47,8.47,0,0,0,1.68-1.65,9.4,9.4,0,0,0,1.18-2.07L426.78,158a7.52,7.52,0,0,1-2.83.57,14.84,14.84,0,0,1-5.63-1.06,13.62,13.62,0,0,1-7.73-7.76,16.5,16.5,0,0,1-1.14-6.28V125.52h8.23v17.91a8.32,8.32,0,0,0,.5,3,6.21,6.21,0,0,0,1.35,2.15,5.23,5.23,0,0,0,2,1.29,7,7,0,0,0,2.44.42,5.16,5.16,0,0,0,2.4-.59,6.68,6.68,0,0,0,2-1.56,7.6,7.6,0,0,0,1.33-2.19,6.89,6.89,0,0,0,.48-2.53V125.52h8.32v28.32a16.28,16.28,0,0,1-1.33,6.42,16.75,16.75,0,0,1-3.55,5.23,17.23,17.23,0,0,1-5.25,3.54,15.91,15.91,0,0,1-6.42,1.3Z"/><path class="cls-5" d="M189.83,192.22h-9.19V178.81h9.19v2.69h-6.51v2.68h4.41v2.68h-4.41v2.68h6.51Z"/><path class="cls-5" d="M194,192.22h-2.55v-10h.62l.84,1a4.71,4.71,0,0,1,1.4-.87,4.49,4.49,0,0,1,1.63-.3,4.38,4.38,0,0,1,1.73.35,4.81,4.81,0,0,1,1.42,1,4.53,4.53,0,0,1,1.31,3.18v5.72h-2.55V186.5a1.85,1.85,0,0,0-.15-.74,2,2,0,0,0-.41-.62,2.11,2.11,0,0,0-.61-.41,1.85,1.85,0,0,0-.74-.15,1.94,1.94,0,0,0-.76.15,1.86,1.86,0,0,0-1,1,1.85,1.85,0,0,0-.15.74Z"/><path class="cls-5" d="M211,184.2l-1.87,1.88a2.58,2.58,0,0,0-.39-.71,2.71,2.71,0,0,0-.54-.53,2.51,2.51,0,0,0-.66-.32,2.28,2.28,0,0,0-.73-.12,2.39,2.39,0,0,0-1,.22,2.25,2.25,0,0,0-.8.6,2.9,2.9,0,0,0-.54.92,3.44,3.44,0,0,0-.2,1.18,2.45,2.45,0,0,0,.2,1,2.5,2.5,0,0,0,.54.81,2.36,2.36,0,0,0,.8.54,2.54,2.54,0,0,0,1,.2,2.46,2.46,0,0,0,.72-.11,2.23,2.23,0,0,0,.65-.29,2.4,2.4,0,0,0,.54-.47,2.44,2.44,0,0,0,.39-.61l1.87,1.88a5.08,5.08,0,0,1-.82.91,5.19,5.19,0,0,1-2.13,1.11,5.5,5.5,0,0,1-1.22.14,4.91,4.91,0,0,1-2-.4,5.18,5.18,0,0,1-1.63-1.09,5.29,5.29,0,0,1-1.1-1.61,5.09,5.09,0,0,1-.4-2,5.91,5.91,0,0,1,.4-2.15,5.55,5.55,0,0,1,1.1-1.74,5.28,5.28,0,0,1,1.63-1.18,4.77,4.77,0,0,1,2-.43A5.06,5.06,0,0,1,208,182a5,5,0,0,1,1.15.47,5.13,5.13,0,0,1,1,.74A4.69,4.69,0,0,1,211,184.2Z"/><path class="cls-5" d="M221.73,187.13a5.4,5.4,0,0,1-.4,2.09,5.16,5.16,0,0,1-1.1,1.67,5.08,5.08,0,0,1-1.62,1.11,5,5,0,0,1-4,0,5.12,5.12,0,0,1-1.63-1.11,5.33,5.33,0,0,1-1.1-1.67,5.4,5.4,0,0,1-.4-2.09,5.48,5.48,0,0,1,.4-2.12,5.27,5.27,0,0,1,1.1-1.68,5.15,5.15,0,0,1,3.62-1.51,5.26,5.26,0,0,1,2,.38,4.84,4.84,0,0,1,1.62,1.08,5,5,0,0,1,1.1,1.67A5.64,5.64,0,0,1,221.73,187.13Zm-2.57,0A3,3,0,0,0,219,186a2.82,2.82,0,0,0-.55-.86,2.24,2.24,0,0,0-.81-.55,2.53,2.53,0,0,0-2,0,2.24,2.24,0,0,0-.81.55,2.77,2.77,0,0,0-.53.86,3,3,0,0,0-.2,1.12,2.91,2.91,0,0,0,.2,1.07,2.77,2.77,0,0,0,.53.86,2.46,2.46,0,0,0,.81.58,2.38,2.38,0,0,0,1,.21,2.53,2.53,0,0,0,1-.2,2.38,2.38,0,0,0,.81-.55,2.7,2.7,0,0,0,.55-.86A3.08,3.08,0,0,0,219.16,187.13Z"/><path class="cls-5" d="M225.7,192.22h-2.56v-10h.62l.84,1a4.71,4.71,0,0,1,1.4-.87,4.53,4.53,0,0,1,1.63-.3,4.38,4.38,0,0,1,1.73.35,4.56,4.56,0,0,1,1.42,1,4.43,4.43,0,0,1,1,1.44,4.23,4.23,0,0,1,.35,1.74v5.72h-2.55V186.5a1.85,1.85,0,0,0-.15-.74,2,2,0,0,0-.41-.62,2.11,2.11,0,0,0-.61-.41,1.81,1.81,0,0,0-.74-.15,1.86,1.86,0,0,0-.75.15,1.92,1.92,0,0,0-.62.41,2,2,0,0,0-.56,1.36Z"/><path class="cls-5" d="M238.8,192.22a4.23,4.23,0,0,1-1.74-.35,4.5,4.5,0,0,1-1.43-1,4.55,4.55,0,0,1-1-1.43,4.4,4.4,0,0,1-.35-1.74v-3h-1.24v-2.54h1.24v-4h2.54v4h3.87v2.54h-3.87v3a1.94,1.94,0,0,0,.15.76,2.11,2.11,0,0,0,.41.61,2.42,2.42,0,0,0,.62.42,1.94,1.94,0,0,0,.76.15h1.93v2.54Z"/><path class="cls-5" d="M244.72,192.22h-2.55v-10h.61l.84,1.18a4.53,4.53,0,0,1,1.41-.86,4.47,4.47,0,0,1,1.62-.3h2.26v2.54h-2.26a1.9,1.9,0,0,0-.75.15,1.92,1.92,0,0,0-.62.41,2,2,0,0,0-.41.62,1.94,1.94,0,0,0-.15.76Z"/><path class="cls-5" d="M259.61,192.22H259l-1-1.37a7.64,7.64,0,0,1-.77.61,5.67,5.67,0,0,1-.86.5,5,5,0,0,1-.92.33,3.83,3.83,0,0,1-1,.12,5.53,5.53,0,0,1-2-.36,4.58,4.58,0,0,1-1.62-1,4.73,4.73,0,0,1-1.1-1.66,5.8,5.8,0,0,1-.4-2.23,5.56,5.56,0,0,1,.4-2.15,5.1,5.1,0,0,1,1.1-1.68,4.87,4.87,0,0,1,1.62-1.09,5.15,5.15,0,0,1,2-.39,3.42,3.42,0,0,1,1,.13,5.15,5.15,0,0,1,.93.33,5,5,0,0,1,.86.51,7.6,7.6,0,0,1,.76.62l1-1.18h.62ZM257,187.13a2.59,2.59,0,0,0-.21-1,2.77,2.77,0,0,0-.54-.87,2.88,2.88,0,0,0-.81-.61,2.25,2.25,0,0,0-1-.23,2.72,2.72,0,0,0-1,.18,2.36,2.36,0,0,0-1.34,1.38,3.67,3.67,0,0,0,0,2.33,2.43,2.43,0,0,0,.54.86,2.35,2.35,0,0,0,.8.52,2.72,2.72,0,0,0,1,.18,2.25,2.25,0,0,0,1-.23,2.7,2.7,0,0,0,.81-.61,2.77,2.77,0,0,0,.54-.87A2.54,2.54,0,0,0,257,187.13Z"/><path class="cls-5" d="M271.93,192.22a4.3,4.3,0,0,1-1.74-.35,4.45,4.45,0,0,1-1.42-1,4.58,4.58,0,0,1-1-1.43,4.4,4.4,0,0,1-.35-1.74v-3h-1.24v-2.54h1.24v-4H270v4h3.87v2.54H270v3a1.91,1.91,0,0,0,.56,1.37,2.12,2.12,0,0,0,.62.42,1.86,1.86,0,0,0,.75.15h1.94v2.54Z"/><path class="cls-5" d="M282.66,191.05a6.66,6.66,0,0,1-.66.53,4.5,4.5,0,0,1-.73.43,4.69,4.69,0,0,1-.79.29,3.32,3.32,0,0,1-.83.11,4.57,4.57,0,0,1-1.74-.33,4.42,4.42,0,0,1-1.43-.93,4.17,4.17,0,0,1-1-1.47,5.16,5.16,0,0,1-.35-1.94v-5.53h2.54v5.53a2.38,2.38,0,0,0,.16.91,2,2,0,0,0,.41.66,1.75,1.75,0,0,0,.62.42,2,2,0,0,0,.75.14,1.48,1.48,0,0,0,.74-.19,2.07,2.07,0,0,0,.62-.48,2.33,2.33,0,0,0,.41-.68,2.08,2.08,0,0,0,.15-.78v-5.53h2.55v10h-.62Z"/><path class="cls-5" d="M305,192.22h-2.67v-9.57a1.32,1.32,0,0,0-.11-.53,1.37,1.37,0,0,0-.29-.42,1.3,1.3,0,0,0-.43-.29,1.4,1.4,0,0,0-1,0,1.3,1.3,0,0,0-.43.29,1.19,1.19,0,0,0-.28.42,1.32,1.32,0,0,0-.11.53v9.57H297v-9.57a1.32,1.32,0,0,0-.1-.53,1.42,1.42,0,0,0-.71-.71,1.35,1.35,0,0,0-.53-.1,1.27,1.27,0,0,0-.52.1,1.42,1.42,0,0,0-.43.29,1.34,1.34,0,0,0-.28.42,1.32,1.32,0,0,0-.11.53v9.57H291.6v-9.57a4.11,4.11,0,0,1,.31-1.57,4.06,4.06,0,0,1,.86-1.28,4.12,4.12,0,0,1,1.28-.86,4,4,0,0,1,1.57-.31,3.91,3.91,0,0,1,1.44.26,4.14,4.14,0,0,1,1.25.77,4,4,0,0,1,1.24-.77,3.82,3.82,0,0,1,1.43-.26,4,4,0,0,1,1.57.31,4,4,0,0,1,1.28.86,4.06,4.06,0,0,1,.86,1.28,3.93,3.93,0,0,1,.31,1.57Z"/><path class="cls-5" d="M316.71,192.22h-.62l-1-1.37a7.64,7.64,0,0,1-.77.61,5.67,5.67,0,0,1-.86.5,4.79,4.79,0,0,1-.92.33,3.83,3.83,0,0,1-1,.12,5.44,5.44,0,0,1-2-.36,4.62,4.62,0,0,1-1.63-1,4.87,4.87,0,0,1-1.1-1.66,5.8,5.8,0,0,1-.4-2.23,5.56,5.56,0,0,1,.4-2.15,5.27,5.27,0,0,1,1.1-1.68,4.91,4.91,0,0,1,1.63-1.09,5.07,5.07,0,0,1,2-.39,3.54,3.54,0,0,1,1,.13,5,5,0,0,1,.92.33,5,5,0,0,1,.86.51,7.6,7.6,0,0,1,.76.62l1-1.18h.62Zm-2.57-5.09a2.76,2.76,0,0,0-.2-1,3,3,0,0,0-.55-.87,2.88,2.88,0,0,0-.81-.61,2.25,2.25,0,0,0-1-.23,2.7,2.7,0,0,0-1,.18,2.32,2.32,0,0,0-.81.53,2.51,2.51,0,0,0-.53.85,3.49,3.49,0,0,0,0,2.33,2.55,2.55,0,0,0,.53.86,2.3,2.3,0,0,0,.81.52,2.7,2.7,0,0,0,1,.18,2.25,2.25,0,0,0,1-.23,2.7,2.7,0,0,0,.81-.61,3,3,0,0,0,.55-.87A2.71,2.71,0,0,0,314.14,187.13Z"/><path class="cls-5" d="M324.15,192.22h-5.83v-2.54h5.83a.65.65,0,0,0,.64-.64.33.33,0,0,0-.19-.35,1,1,0,0,0-.45-.09H321.5a3.1,3.1,0,0,1-1.25-.25,3.36,3.36,0,0,1-1-.69,3.18,3.18,0,0,1-.67-1,3.23,3.23,0,0,1,0-2.49,3.11,3.11,0,0,1,2.93-1.93h5.17v2.54H321.5a.65.65,0,0,0-.64.64.62.62,0,0,0,.19.46.58.58,0,0,0,.45.19h2.65a3.41,3.41,0,0,1,1.24.22,3.21,3.21,0,0,1,1,.61,2.9,2.9,0,0,1,.93,2.15,3,3,0,0,1-.25,1.24,3.12,3.12,0,0,1-2.93,1.94Z"/><path class="cls-5" d="M337.44,184.2l-1.87,1.88a2.55,2.55,0,0,0-.38-.71,2.51,2.51,0,0,0-.55-.53,2.56,2.56,0,0,0-1.39-.44,2.34,2.34,0,0,0-1,.22,2.38,2.38,0,0,0-.81.6,3.08,3.08,0,0,0-.53.92,3.21,3.21,0,0,0-.2,1.18,2.29,2.29,0,0,0,.2,1,2.64,2.64,0,0,0,.53.81,2.57,2.57,0,0,0,1.79.74,2.46,2.46,0,0,0,.72-.11,2.5,2.5,0,0,0,1.2-.76,3.17,3.17,0,0,0,.39-.61l1.87,1.88a5.49,5.49,0,0,1-.82.91,5.19,5.19,0,0,1-1,.68,5.05,5.05,0,0,1-1.14.43,5.43,5.43,0,0,1-1.22.14,4.9,4.9,0,0,1-2-.4,5.07,5.07,0,0,1-1.63-1.09,5.12,5.12,0,0,1-1.1-1.61,4.91,4.91,0,0,1-.4-2,5.71,5.71,0,0,1,.4-2.15,5.37,5.37,0,0,1,1.1-1.74,5.16,5.16,0,0,1,1.63-1.18,4.76,4.76,0,0,1,2-.43,5.06,5.06,0,0,1,1.23.16,4.64,4.64,0,0,1,1.15.47,4.86,4.86,0,0,1,1,.74A4.4,4.4,0,0,1,337.44,184.2Z"/><path class="cls-5" d="M348.22,187.13a5.59,5.59,0,0,1-.4,2.09,5.33,5.33,0,0,1-1.1,1.67A5.08,5.08,0,0,1,345.1,192a5.06,5.06,0,0,1-4,0,5.08,5.08,0,0,1-1.62-1.11,5.16,5.16,0,0,1-1.1-1.67,5.4,5.4,0,0,1-.4-2.09,5.48,5.48,0,0,1,.4-2.12,5.1,5.1,0,0,1,1.1-1.68,4.9,4.9,0,0,1,1.62-1.1,5,5,0,0,1,2-.41,5.31,5.31,0,0,1,2,.38,4.84,4.84,0,0,1,1.62,1.08,5.11,5.11,0,0,1,1.1,1.67A5.84,5.84,0,0,1,348.22,187.13Zm-2.57,0a2.83,2.83,0,0,0-.21-1.12,2.62,2.62,0,0,0-.54-.86,2.24,2.24,0,0,0-.81-.55,2.54,2.54,0,0,0-1-.2,2.45,2.45,0,0,0-1,.2,2.24,2.24,0,0,0-.81.55,2.62,2.62,0,0,0-.54.86,3,3,0,0,0-.19,1.12,2.9,2.9,0,0,0,.19,1.07,2.62,2.62,0,0,0,.54.86,2.46,2.46,0,0,0,.81.58,2.3,2.3,0,0,0,1,.21,2.54,2.54,0,0,0,1-.2,2.38,2.38,0,0,0,.81-.55,2.52,2.52,0,0,0,.54-.86A2.89,2.89,0,0,0,345.65,187.13Z"/><path class="cls-5" d="M354.58,192.22a4.23,4.23,0,0,1-1.74-.35,4.5,4.5,0,0,1-1.43-1,4.39,4.39,0,0,1-1-1.43,4.23,4.23,0,0,1-.35-1.74v-3h-1.25v-2.54h1.25v-4h2.54v4h3.87v2.54h-3.87v3a1.94,1.94,0,0,0,.15.76,2.11,2.11,0,0,0,.41.61,2.26,2.26,0,0,0,.62.42,1.94,1.94,0,0,0,.76.15h1.93v2.54Z"/><path class="cls-5" d="M367.64,192.22H367l-1-1.37a7.64,7.64,0,0,1-.77.61,5.67,5.67,0,0,1-.86.5,4.79,4.79,0,0,1-.92.33,3.81,3.81,0,0,1-1,.12,5.45,5.45,0,0,1-2-.36,4.62,4.62,0,0,1-1.63-1,4.87,4.87,0,0,1-1.1-1.66,5.8,5.8,0,0,1-.4-2.23,5.56,5.56,0,0,1,.4-2.15,5.27,5.27,0,0,1,1.1-1.68,4.91,4.91,0,0,1,1.63-1.09,5.08,5.08,0,0,1,2-.39,3.52,3.52,0,0,1,1,.13,4.79,4.79,0,0,1,.92.33,5,5,0,0,1,.86.51,6.62,6.62,0,0,1,.76.62l1-1.18h.62Zm-2.57-5.09a2.76,2.76,0,0,0-.2-1,3,3,0,0,0-.55-.87,2.88,2.88,0,0,0-.81-.61,2.21,2.21,0,0,0-1-.23,2.72,2.72,0,0,0-1,.18,2.32,2.32,0,0,0-.81.53,2.51,2.51,0,0,0-.53.85,3.49,3.49,0,0,0,0,2.33,2.55,2.55,0,0,0,.53.86,2.3,2.3,0,0,0,.81.52,2.72,2.72,0,0,0,1,.18,2.21,2.21,0,0,0,1-.23,2.7,2.7,0,0,0,.81-.61,3,3,0,0,0,.55-.87A2.71,2.71,0,0,0,365.07,187.13Z"/><path class="cls-8" d="M94.89,71.68A23.22,23.22,0,1,0,67.25,94.47v2.64H66.14A1.1,1.1,0,0,0,65,98.22v17.69a1.1,1.1,0,0,0,1.1,1.1H77.2a1.1,1.1,0,0,0,1.1-1.1V98.22a1.1,1.1,0,0,0-1.1-1.11H76.09V94.47A23.25,23.25,0,0,0,94.89,71.68ZM76.09,114.8H67.25V99.32h8.84ZM69.46,97.11V94.9h4.42v2.21Zm2.21-4.42a21,21,0,1,1,21-21A21,21,0,0,1,71.67,92.69Z"/><path class="cls-8" d="M71.67,49.24C59.73,49.24,50,60,50,73.29c0,12.15,8.1,19.4,21.66,19.4s21.66-7.25,21.66-19.4C93.33,60,83.61,49.24,71.67,49.24Z"/><path class="cls-8" d="M59.79,46.91c5,0,9.09-4.52,9.09-10.08,0-5.06-3.54-12.42-9.09-12.42s-9.08,7.36-9.08,12.42C50.71,42.39,54.78,46.91,59.79,46.91Z"/><path class="cls-8" d="M83.55,46.91c5,0,9.08-4.52,9.08-10.08,0-5.06-3.54-12.42-9.08-12.42s-9.08,7.36-9.08,12.42C74.47,42.39,78.54,46.91,83.55,46.91Z"/><path class="cls-8" d="M102.28,41.48c-5.55,0-9.09,7.35-9.09,12.42,0,5.56,4.08,10.08,9.09,10.08s9.08-4.52,9.08-10.08C111.36,48.83,107.82,41.48,102.28,41.48Z"/><path class="cls-8" d="M50.15,53.89c0-5.06-3.54-12.41-9.08-12.41S32,48.83,32,53.89C32,59.46,36.06,64,41.07,64S50.15,59.46,50.15,53.89Z"/><path class="cls-9" d="M69.13,69.06h5.08a1.28,1.28,0,1,0,0-2.55H69.13a1.28,1.28,0,0,0,0,2.55Z"/><path class="cls-9" d="M69.13,72.87h5.08a1.27,1.27,0,1,0,0-2.54H69.13a1.27,1.27,0,1,0,0,2.54Z"/><path class="cls-9" d="M85.66,80.5V71.6a1.27,1.27,0,0,0-1.27-1.27H79.3V64A1.27,1.27,0,0,0,78,62.7H76.76V60.15a1.27,1.27,0,0,0-1.27-1.27H67.86a1.27,1.27,0,0,0-1.28,1.27V62.7H65.31A1.27,1.27,0,0,0,64,64v6.36H59a1.27,1.27,0,0,0-1.27,1.27v8.9a1.28,1.28,0,0,0,0,2.55h28a1.28,1.28,0,0,0,0-2.55ZM64,80.5H60.22V76.69H61.5a1.28,1.28,0,0,0,0-2.55H60.22V72.87H64Zm5.09-19.08h5.08V62.7H69.13ZM72.94,80.5H70.4V76.69h2.54Zm3.82,0H75.49V75.42a1.28,1.28,0,0,0-1.28-1.28H69.13a1.27,1.27,0,0,0-1.27,1.28V80.5H66.58V65.24H76.76Zm6.36-6.36H81.85a1.28,1.28,0,1,0,0,2.55h1.27V80.5H79.3V72.87h3.82Z"/></g></g></svg>